<svg id="Capa_1" enable-background="new 0 0 511.955 511.955" height="512" viewBox="0 0 511.955 511.955" width="512" xmlns="http://www.w3.org/2000/svg"><g><g><path d="m403.167 99.35 95.205-57.192c3.718-2.233 4.914-7.047 2.671-10.752l-12.182-20.124c-2.243-3.705-7.074-4.897-10.792-2.664l-95.205 57.192c-3.718 2.233-4.914 7.047-2.671 10.752l12.182 20.124c2.242 3.705 7.074 4.897 10.792 2.664z" fill="#e7a561"/><path d="m501.043 31.407-12.182-20.124c-2.242-3.705-7.074-4.897-10.792-2.664l-15.268 9.172 8.242 13.616c2.242 3.705 1.047 8.519-2.671 10.752l-79.937 48.02 3.939 6.508c2.243 3.705 7.075 4.897 10.792 2.664l95.205-57.191c3.719-2.235 4.915-7.049 2.672-10.753z" fill="#e49542"/><path d="m33.886 321.184 268.306-161.176c3.718-2.233 4.914-7.047 2.671-10.752l-12.182-20.124c-2.243-3.705-7.074-4.897-10.792-2.664l-268.306 161.176c-3.718 2.233-4.914 7.047-2.671 10.752l12.182 20.124c2.242 3.705 7.074 4.897 10.792 2.664z" fill="#e7a561"/><path d="m304.863 149.256-12.182-20.124c-2.243-3.705-7.075-4.897-10.792-2.664l-15.268 9.172 8.242 13.616c2.242 3.705 1.047 8.518-2.671 10.751l-253.038 152.005 3.939 6.508c2.242 3.705 7.074 4.897 10.792 2.664l268.306-161.176c3.718-2.234 4.914-7.047 2.672-10.752z" fill="#e49542"/></g><path d="m507.459 27.523-12.181-20.123c-4.372-7.224-13.823-9.562-21.071-5.21l-95.205 57.191c-3.521 2.116-6.004 5.474-6.99 9.457-.985 3.978-.357 8.101 1.766 11.608l2.194 3.624-74.655 44.846c-4.057-9.193-14.212-14.299-23.29-8.877l-180.821 108.622c-3.551 2.133-4.7 6.741-2.566 10.292 2.133 3.55 6.741 4.7 10.291 2.567.488.068 180.823-109.389 181.334-108.503.12.208 12.286 20.087 12.219 20.359-.057.23-268.871 161.431-268.974 161.261-.135-.224-12.288-20.078-12.219-20.359.056-.225 57.089-34.406 57.269-34.514 3.551-2.133 4.7-6.741 2.566-10.291-2.132-3.551-6.74-4.7-10.291-2.567l-57.114 34.31c-3.521 2.115-6.004 5.474-6.99 9.456-.985 3.979-.357 8.102 1.766 11.608l12.182 20.124c2.882 4.762 7.97 7.4 13.178 7.399 3.882-.001 6.729-1.375 9.977-3.443l136.826 170.239c8.047 10.012 20.059 15.355 32.235 15.355 7.269 0 14.595-1.903 21.173-5.855l144.701-86.924c17.619-10.584 24.716-32.748 16.507-51.557l-12.113-27.754c-1.656-3.796-6.078-5.527-9.874-3.874-4.718 2.055-5.594 7.833-2.965 11.956l-23.086 13.869-16.31-31.508 25.113-15.085.052.12c1.657 3.797 6.08 5.529 9.874 3.874 3.796-1.657 5.53-6.078 3.874-9.874l-61.834-141.675c4.321-2.286 7.832-5.819 9.037-10.686 1.38-5.571-.807-10.729-3.959-15.232l74.654-44.846 2.219 3.667c2.882 4.762 7.97 7.4 13.179 7.4 2.694 0 5.422-.707 7.893-2.19l95.205-57.191c3.521-2.116 6.004-5.474 6.99-9.457.985-3.979.357-8.102-1.766-11.609zm-263.07 175.957 16.309 31.508-37.983 22.817-17.593-30.737zm-47.773 128.807-19.349-29.682 40.041-24.053 17.593 30.737zm45.737-9.978 17.593 30.738-35.784 21.496-19.349-29.683zm-58.605 17.707-34.938 20.988-20.363-29.074 35.951-21.597zm8.197 12.575 19.35 29.682-33.496 20.122-20.363-29.073zm27.547 42.255 19.349 29.682-32.053 19.255-20.363-29.073zm12.867-7.729 35.04-21.049 17.593 30.737-33.283 19.994zm22.855-72.533 35.612-21.393 16.31 31.509-34.329 20.622zm-7.453-13.021-17.593-30.737 37.439-22.49 16.309 31.507zm-55.499-66.769 17.593 30.737-40.785 24.5-19.349-29.682zm-55.409 33.285 19.349 29.681-36.381 21.854-20.362-29.073zm-84.042 50.486 33.758-20.279 20.362 29.073-31.732 19.061zm31.872 39.655 30.873-18.546 20.363 29.074-28.847 17.329zm31.875 39.658 27.988-16.813 20.363 29.073-25.962 15.596zm54.262 67.512-22.389-27.856 25.103-15.081 20.363 29.073zm51.524 27.852c-11.202 6.729-25.815 4.134-33.992-6.039l-8.047-10.013 22.219-13.347 20.363 29.073zm13.432-8.069-20.363-29.073 31.624-18.998 19.349 29.682zm43.478-26.118-19.349-29.682 32.54-19.547 17.593 30.737zm93.12-97.245 5.154 11.809c5.205 11.925.698 25.981-10.483 32.698l-.589.354-16.309-31.508zm-18.802 52.6-30.675 18.427-17.592-30.737 31.958-19.198zm-23.218-44.855-32.502 19.524-17.593-30.737 33.785-20.295zm15.636-68.196-25.971 15.602-16.31-31.509 27.998-16.819zm-20.334-46.59-28.856 17.335-16.309-31.507 30.883-18.552zm-20.333-46.588-31.741 19.067-16.309-31.508 33.768-20.285zm189.187-172.452c-.531-.109-95.181 57.986-95.719 57.073-.133-.226-12.288-20.077-12.219-20.359.053-.214 95.19-57.292 95.359-57.395.171-.103 13.448 20.305 12.579 20.681z"/></g></svg>